# xmcd
#
# Track frame offsets:
#	150
#	17625
#	34245
#	58518
#	74226
#	89991
#	107823
#	132162
#	148890
#	165135
#	186774
#	205347
#	222234
#	240753
#	257757
#	271050
#	291012
#	309276
#	326760
#
# Disc length: 4586 seconds
#
# Revision: 3
# Processed by: cddbd v1.5.2PL0 Copyright (c) Steve Scherf et al.
# Submitted via: EZCDAudioConverter 9.0.5.1
#
DISCID=1d11e813
DTITLE=SOM LIVRE - AS MELHORES DO RAP NACIONAL - 2000 [CD SO3027-2) SOM LIVRE 
DTITLE=SPOTTLIGHT
DYEAR=2000
DGENRE=funk
TTITLE0=MC D'EDDY - RAP DO PIRÃO (BY GILMAR SINISTRO)
TTITLE1=MC CIDINHO and MC DOCA - RAP DA FELICIDADE (BY GILMAR SINISTRO)
TTITLE2=MC DEDÉ and MC TONINHO - RAP DA MULHER FEIA (BY GILMAR SINISTRO)
TTITLE3=MC BOB RUM - RAP DO SILVA (BY GILMAR SINISTRO)
TTITLE4=S.D. BOYS - MORA MAL (BY GILMAR SINISTRO)
TTITLE5=FORÇA DO RAP - POPOTEKNO (BY GILMAR SINISTRO)
TTITLE6=MC COIOTE and MCRAPOZÃO - RAP DA ESTRADA DA POSSE (BY GILMAR SINISTRO)
TTITLE7=AUDIO BASS - MONTAGEM - VEM AQUI, VAMOS CANTAR (BY GILMAR SINISTRO)
TTITLE8=MC BOB RUM and MC MARCINHO - ESCRITO PRÁS PRINCESAS (BY GILMAR SINISTRO)
TTITLE9=SIMPLE DANCE - RAP DO BEIJO (BY GILMAR SINISTRO)
TTITLE10=MC D'EDDY - QUERO VER VOCÊ DANÇAR (BY GILMAR SINISTRO)
TTITLE11=MC TIÊ and MC PLAYBOY - RAP DA MUDANÇA (BY GILMAR SINISTRO)
TTITLE12=MC CIDINHO and MC DOCA - RAP DA CIDADE DE DEUS (BY GILMAR SINISTRO)
TTITLE13=MC FISK and MC LELÊ - DANÇA DA PERERECA (BY GILMAR SINISTRO)
TTITLE14=MC AZUL and MC CEBOLINHA - RAP DO PAPA TUDO (BY GILMAR SINISTRO)
TTITLE15=MC BOB RUM - SOM DO SUSURRO (BY GILMAR SINISTRO)
TTITLE16=MC CIDINHO and MC DOCA - RAP DO RIO DE JANEIRO (BY GILMAR SINISTRO)
TTITLE17=MC BOB RUM - ESTÁ ESCRITO (BY GILMAR SINISTRO)
TTITLE18=MC TIÊ and MC PLAYBOY - RAP DO COMPLEXO (BY GILMAR SINISTRO)
EXTD=
EXTT0=
EXTT1=
EXTT2=
EXTT3=
EXTT4=
EXTT5=
EXTT6=
EXTT7=
EXTT8=
EXTT9=
EXTT10=
EXTT11=
EXTT12=
EXTT13=
EXTT14=
EXTT15=
EXTT16=
EXTT17=
EXTT18=
PLAYORDER=
